HIERARCHY
ROOT Hips
{
	OFFSET 0.000000 100.481300 0.000000
	CHANNELS 6 Xposition Yposition Zposition Xrotation Yrotation Zrotation 
	JOINT Spine
	{
		OFFSET -0.279200 12.230698 -2.892100
		CHANNELS 3 Xrotation Yrotation Zrotation
		JOINT Spine1
		{
			OFFSET -0.232667 10.192268 -1.242267
			CHANNELS 3 Xrotation Yrotation Zrotation
			JOINT Spine1_split
			{
				OFFSET -0.232667 10.192268 -1.242267
				CHANNELS 3 Xrotation Yrotation Zrotation
				JOINT Spine2
				{
					OFFSET -0.232667 10.192268 -1.242267
					CHANNELS 3 Xrotation Yrotation Zrotation
					JOINT Neck
					{
						OFFSET -0.418800 17.814194 8.416900
						CHANNELS 3 Xrotation Yrotation Zrotation
						JOINT Head
						{
							OFFSET 0.000000 7.031097 3.806800
							CHANNELS 3 Xrotation Yrotation Zrotation
							JOINT HeadTop_End
							{
								OFFSET 0.000000 24.646606 12.978600
								CHANNELS 3 Xrotation Yrotation Zrotation
								End Site
								{
									OFFSET 0.000000 0.000000 0.000000
								}
							}
						}
					}
					JOINT LeftShoulder
					{
						OFFSET 8.476499 7.247704 -3.868750
						CHANNELS 3 Xrotation Yrotation Zrotation
						JOINT LeftShoulder_split
						{
							OFFSET 8.476499 7.247704 -3.868750
							CHANNELS 3 Xrotation Yrotation Zrotation
							JOINT LeftArm
							{
								OFFSET 9.308998 -2.777710 0.208600
								CHANNELS 3 Xrotation Yrotation Zrotation
								JOINT LeftForeArm
								{
									OFFSET 29.972298 0.000000 0.000000
									CHANNELS 3 Xrotation Yrotation Zrotation
									JOINT LeftHand
									{
										OFFSET 26.026505 0.000000 0.000000
										CHANNELS 3 Xrotation Yrotation Zrotation
										JOINT LeftHandThumb1
										{
											OFFSET 12.240501 -7.147949 9.207150
											CHANNELS 3 Xrotation Yrotation Zrotation
											JOINT LeftHandThumb2
											{
												OFFSET 4.138618 -2.389435 2.389433
												CHANNELS 3 Xrotation Yrotation Zrotation
												JOINT LeftHandThumb3
												{
													OFFSET 2.726913 -1.574387 1.574386
													CHANNELS 3 Xrotation Yrotation Zrotation
													JOINT LeftHandThumb4
													{
														OFFSET 3.941010 -2.275345 2.275342
														CHANNELS 3 Xrotation Yrotation Zrotation
														End Site
														{
															OFFSET 0.000000 0.000000 0.000000
														}
													}
												}
											}
										}
										JOINT LeftHandIndex1
										{
											OFFSET 24.424698 -1.985611 5.953459
											CHANNELS 3 Xrotation Yrotation Zrotation
											JOINT LeftHandIndex2
											{
												OFFSET 6.426697 0.000000 0.000000
												CHANNELS 3 Xrotation Yrotation Zrotation
												JOINT LeftHandIndex3
												{
													OFFSET 5.337898 0.000000 0.000000
													CHANNELS 3 Xrotation Yrotation Zrotation
													JOINT LeftHandIndex4
													{
														OFFSET 4.409401 0.000000 0.000000
														CHANNELS 3 Xrotation Yrotation Zrotation
														End Site
														{
															OFFSET 0.000000 0.000000 0.000000
														}
													}
												}
											}
										}
										JOINT LeftHandMiddle1
										{
											OFFSET 23.810104 0.000000 0.000000
											CHANNELS 3 Xrotation Yrotation Zrotation
											JOINT LeftHandMiddle2
											{
												OFFSET 7.176498 0.000000 0.000000
												CHANNELS 3 Xrotation Yrotation Zrotation
												JOINT LeftHandMiddle3
												{
													OFFSET 6.774902 0.000000 0.000000
													CHANNELS 3 Xrotation Yrotation Zrotation
													JOINT LeftHandMiddle4
													{
														OFFSET 5.403328 0.000000 0.000000
														CHANNELS 3 Xrotation Yrotation Zrotation
														End Site
														{
															OFFSET 0.000000 0.000000 0.000000
														}
													}
												}
											}
										}
										JOINT LeftHandRing1
										{
											OFFSET 22.908401 -0.839279 -6.020567
											CHANNELS 3 Xrotation Yrotation Zrotation
											JOINT LeftHandRing2
											{
												OFFSET 6.337502 0.000000 0.000000
												CHANNELS 3 Xrotation Yrotation Zrotation
												JOINT LeftHandRing3
												{
													OFFSET 5.779297 0.000000 0.000000
													CHANNELS 3 Xrotation Yrotation Zrotation
													JOINT LeftHandRing4
													{
														OFFSET 4.965698 0.000000 0.000000
														CHANNELS 3 Xrotation Yrotation Zrotation
														End Site
														{
															OFFSET 0.000000 0.000000 0.000000
														}
													}
												}
											}
										}
										JOINT LeftHandPinky1
										{
											OFFSET 20.037003 -1.530319 -10.950146
											CHANNELS 3 Xrotation Yrotation Zrotation
											JOINT LeftHandPinky2
											{
												OFFSET 5.254700 0.000000 0.000000
												CHANNELS 3 Xrotation Yrotation Zrotation
												JOINT LeftHandPinky3
												{
													OFFSET 4.810204 0.000000 0.000000
													CHANNELS 3 Xrotation Yrotation Zrotation
													JOINT LeftHandPinky4
													{
														OFFSET 3.647202 0.000000 0.000000
														CHANNELS 3 Xrotation Yrotation Zrotation
														End Site
														{
															OFFSET 0.000000 0.000000 0.000000
														}
													}
												}
											}
										}
									}
								}
							}
						}
					}
					JOINT RightShoulder
					{
						OFFSET -7.570500 7.247704 -3.868750
						CHANNELS 3 Xrotation Yrotation Zrotation
						JOINT RightShoulder_split
						{
							OFFSET -7.570500 7.247704 -3.868750
							CHANNELS 3 Xrotation Yrotation Zrotation
							JOINT RightArm
							{
								OFFSET -9.308998 -2.777710 0.208500
								CHANNELS 3 Xrotation Yrotation Zrotation
								JOINT RightForeArm
								{
									OFFSET -29.972300 0.000000 0.000000
									CHANNELS 3 Xrotation Yrotation Zrotation
									JOINT RightHand
									{
										OFFSET -26.026505 0.000000 0.000000
										CHANNELS 3 Xrotation Yrotation Zrotation
										JOINT RightHandThumb1
										{
											OFFSET -12.240601 -7.148026 9.207092
											CHANNELS 3 Xrotation Yrotation Zrotation
											JOINT RightHandThumb2
											{
												OFFSET -4.138618 -2.389435 2.389433
												CHANNELS 3 Xrotation Yrotation Zrotation
												JOINT RightHandThumb3
												{
													OFFSET -2.726974 -1.574417 1.574421
													CHANNELS 3 Xrotation Yrotation Zrotation
													JOINT RightHandThumb4
													{
														OFFSET -3.941010 -2.275345 2.275343
														CHANNELS 3 Xrotation Yrotation Zrotation
														End Site
														{
															OFFSET 0.000000 0.000000 0.000000
														}
													}
												}
											}
										}
										JOINT RightHandIndex1
										{
											OFFSET -24.424698 -1.985657 5.953444
											CHANNELS 3 Xrotation Yrotation Zrotation
											JOINT RightHandIndex2
											{
												OFFSET -6.426697 0.000000 0.000000
												CHANNELS 3 Xrotation Yrotation Zrotation
												JOINT RightHandIndex3
												{
													OFFSET -5.337898 0.000000 0.000000
													CHANNELS 3 Xrotation Yrotation Zrotation
													JOINT RightHandIndex4
													{
														OFFSET -4.409401 0.000000 0.000000
														CHANNELS 3 Xrotation Yrotation Zrotation
														End Site
														{
															OFFSET 0.000000 0.000000 0.000000
														}
													}
												}
											}
										}
										JOINT RightHandMiddle1
										{
											OFFSET -23.810097 0.000000 0.000000
											CHANNELS 3 Xrotation Yrotation Zrotation
											JOINT RightHandMiddle2
											{
												OFFSET -7.176498 0.000000 0.000000
												CHANNELS 3 Xrotation Yrotation Zrotation
												JOINT RightHandMiddle3
												{
													OFFSET -6.774902 0.000000 0.000000
													CHANNELS 3 Xrotation Yrotation Zrotation
													JOINT RightHandMiddle4
													{
														OFFSET -5.403328 0.000000 0.000000
														CHANNELS 3 Xrotation Yrotation Zrotation
														End Site
														{
															OFFSET 0.000000 0.000000 0.000000
														}
													}
												}
											}
										}
										JOINT RightHandRing1
										{
											OFFSET -22.908302 -0.839325 -6.020576
											CHANNELS 3 Xrotation Yrotation Zrotation
											JOINT RightHandRing2
											{
												OFFSET -6.337502 0.000000 0.000000
												CHANNELS 3 Xrotation Yrotation Zrotation
												JOINT RightHandRing3
												{
													OFFSET -5.779297 0.000000 0.000000
													CHANNELS 3 Xrotation Yrotation Zrotation
													JOINT RightHandRing4
													{
														OFFSET -4.965698 0.000000 0.000000
														CHANNELS 3 Xrotation Yrotation Zrotation
														End Site
														{
															OFFSET 0.000000 0.000000 0.000000
														}
													}
												}
											}
										}
										JOINT RightHandPinky1
										{
											OFFSET -20.037003 -1.530334 -10.950259
											CHANNELS 3 Xrotation Yrotation Zrotation
											JOINT RightHandPinky2
											{
												OFFSET -5.254700 0.000000 0.000000
												CHANNELS 3 Xrotation Yrotation Zrotation
												JOINT RightHandPinky3
												{
													OFFSET -4.810204 0.000000 0.000000
													CHANNELS 3 Xrotation Yrotation Zrotation
													JOINT RightHandPinky4
													{
														OFFSET -3.647202 0.000000 0.000000
														CHANNELS 3 Xrotation Yrotation Zrotation
														End Site
														{
															OFFSET 0.000000 0.000000 0.000000
														}
													}
												}
											}
										}
									}
								}
							}
						}
					}
				}
			}
		}
	}
	JOINT LeftUpLeg
	{
		OFFSET 15.427100 -6.655098 0.678600
		CHANNELS 3 Xrotation Yrotation Zrotation
		JOINT LeftLeg
		{
			OFFSET 4.081073 -39.591068 13.024000
			CHANNELS 3 Xrotation Yrotation Zrotation
			JOINT LeftFoot
			{
				OFFSET -4.081074 -37.707932 -15.979700
				CHANNELS 3 Xrotation Yrotation Zrotation
				JOINT LeftToeBase
				{
					OFFSET 5.346399 -15.068900 20.645000
					CHANNELS 3 Xrotation Yrotation Zrotation
					JOINT LeftToe_End
					{
						OFFSET 2.754700 0.931300 11.300900
						CHANNELS 3 Xrotation Yrotation Zrotation
						End Site
						{
							OFFSET 0.000000 0.000000 0.000000
						}
					}
				}
			}
		}
	}
	JOINT RightUpLeg
	{
		OFFSET -15.569500 -6.655098 0.678600
		CHANNELS 3 Xrotation Yrotation Zrotation
		JOINT RightLeg
		{
			OFFSET -4.081825 -39.591045 13.023800
			CHANNELS 3 Xrotation Yrotation Zrotation
			JOINT RightFoot
			{
				OFFSET 4.081824 -37.707954 -15.979600
				CHANNELS 3 Xrotation Yrotation Zrotation
				JOINT RightToeBase
				{
					OFFSET -5.346400 -15.068900 20.645000
					CHANNELS 3 Xrotation Yrotation Zrotation
					JOINT RightToe_End
					{
						OFFSET -2.754700 0.931300 11.300900
						CHANNELS 3 Xrotation Yrotation Zrotation
						End Site
						{
							OFFSET 0.000000 0.000000 0.000000
						}
					}
				}
			}
		}
	}
}
MOTION
Frames: 4
Frame Time: 0.016667
4.357182 127.372704 339.391968 6.258360 -35.968217 20.466908 36.592913 3.659848 -28.514763 10.113543 4.487080 -5.651612 0.000000 0.000000 0.000000 17.344348 -0.255003 0.868255 -12.219165 18.249671 -13.297135 -37.838664 -7.524090 1.760361 -0.000001 -0.000000 -0.000000 3.460669 -8.918320 -0.904749 0.000000 0.000000 0.000000 -83.626808 1.219634 -12.071364 -339.578318 -61.813130 -343.756481 -7.849530 9.865816 25.085420 17.551580 -5.699211 -12.932258 10.850550 26.127722 8.644755 20.927047 51.115852 0.218656 -0.000000 -0.000000 -0.000002 13.980892 1.201563 -55.004367 0.370801 1.161718 -65.441866 1.983976 2.148004 -57.665108 -0.000001 -0.000001 -0.000000 7.504737 1.174513 -63.778503 1.807875 1.475659 -64.568019 0.130331 -0.912280 -43.272503 -0.000002 0.000001 0.000002 8.574308 2.179156 -75.148986 -0.207620 1.009280 -57.855049 0.443048 1.742122 -53.581314 -0.000000 -0.000002 0.000000 10.030070 13.637088 -84.750230 0.877120 0.062343 -64.595476 1.141234 1.253123 -55.016340 0.000001 0.000001 -0.000001 7.814344 26.927351 -8.074469 0.000000 0.000000 0.000000 -63.242709 -8.464370 33.803624 -75.905456 19.956805 56.360235 103.847774 -11.344598 -4.184696 -0.360662 0.058165 -0.543032 4.001306 -8.596753 -1.236488 3.857199 -10.852867 -1.955292 -0.000001 0.000001 0.000002 1.178593 -0.282685 1.711512 -0.146681 -0.226837 7.547508 -0.127803 -0.395028 -2.757517 0.000000 -0.000001 0.000004 3.352589 -1.937780 -0.812893 0.311559 -0.271396 28.365038 0.039971 -0.084905 -11.190828 0.000001 -0.000000 -0.000001 2.261835 -7.957684 2.165567 0.288143 -0.079114 26.161662 0.173932 -0.165782 10.463103 -0.000000 -0.000001 0.000001 1.961591 -6.393504 2.504514 0.531427 0.722207 34.300575 0.427991 -0.108359 10.262783 0.000002 0.000001 0.000000 -84.048667 -19.873523 23.292704 105.463701 13.201010 6.340102 -18.011441 2.154765 1.596949 1.256079 -2.508915 -0.302544 -0.000000 -0.000000 0.000001 -90.957534 -35.159977 9.836594 106.288064 6.465264 -2.590981 10.747234 5.741795 6.707131 2.169858 0.173844 -1.568187 0.000000 0.000001 0.000002 
4.281397 127.349098 345.075043 7.707849 -35.604857 20.711878 36.292480 3.945574 -27.767540 10.417174 4.343069 -5.637415 0.000000 0.000000 0.000000 17.590075 -0.300818 0.846440 -11.986773 17.712584 -13.403263 -38.648694 -7.453905 1.396195 0.000000 -0.000000 -0.000000 3.732751 -8.938841 -0.897980 0.000000 0.000000 0.000000 -82.664051 -0.098876 -10.383355 -346.709828 -62.155097 -350.113940 -8.715351 8.791271 25.759001 17.551580 -5.699206 -12.932254 10.850550 26.127717 8.644753 20.927041 51.115845 0.218659 -0.000000 -0.000001 0.000000 13.980894 1.201565 -55.004364 0.370801 1.161718 -65.441866 1.983971 2.148005 -57.665115 0.000001 0.000000 -0.000000 7.504739 1.174514 -63.778503 1.807881 1.475657 -64.568012 0.130328 -0.912281 -43.272503 0.000001 0.000001 -0.000001 8.574312 2.179158 -75.148979 -0.207614 1.009278 -57.855049 0.443050 1.742125 -53.581311 0.000001 -0.000000 0.000001 10.030075 13.637092 -84.750230 0.877124 0.062345 -64.595469 1.141230 1.253126 -55.016337 -0.000001 0.000001 -0.000001 7.302784 26.569089 -6.881543 0.000000 0.000000 0.000000 -60.118191 -8.940514 34.394114 -76.312761 20.173432 58.156636 101.670241 -13.677695 -5.595386 -0.360543 0.058161 -0.542839 4.001303 -8.596746 -1.236480 3.857309 -10.852885 -1.955046 -0.000000 -0.000001 0.000002 1.178584 -0.282234 0.826527 -0.148745 -0.225332 6.662550 -0.127663 -0.393681 -3.642497 0.000001 -0.000001 0.000002 3.352642 -1.937376 -1.697909 0.311844 -0.272005 27.480078 0.039185 -0.085483 -12.075794 -0.000001 0.000001 0.000004 2.261791 -7.957262 1.280574 0.287411 -0.081020 25.276676 0.173452 -0.167238 9.578128 -0.000003 -0.000000 -0.000002 1.961564 -6.393082 1.619557 0.531206 0.722514 33.415580 0.426621 -0.108129 9.377840 0.000000 0.000001 -0.000000 -81.868410 -17.381737 23.885592 102.764342 12.166584 6.386148 -20.067581 2.585636 0.454499 1.268347 -2.454970 -0.300015 0.000001 0.000000 0.000001 -92.829470 -32.289555 7.919175 98.342682 10.814197 1.733677 7.504470 5.231855 7.795780 1.921294 0.153600 -1.387453 0.000001 0.000001 -0.000005 
4.048847 126.943466 350.397736 9.101949 -35.200200 20.910732 35.798285 4.318605 -27.029234 10.724714 4.198466 -5.583332 0.000000 0.000000 0.000000 17.800919 -0.342640 0.829319 -11.305823 16.957796 -13.348738 -39.456104 -7.132159 0.943233 0.000000 0.000000 0.000000 4.015687 -8.916292 -0.887795 0.000000 0.000000 0.000000 -82.276773 -1.094238 -8.977278 -352.924863 -62.243630 -355.786057 -9.353971 7.465123 26.072468 17.551580 -5.699213 -12.932256 10.850550 26.127722 8.644752 20.927042 51.115841 0.218656 0.000000 -0.000000 -0.000000 13.980891 1.201563 -55.004360 0.370797 1.161720 -65.441866 1.983970 2.148007 -57.665108 -0.000002 -0.000000 0.000001 7.504737 1.174513 -63.778496 1.807885 1.475661 -64.568019 0.130330 -0.912279 -43.272503 -0.000000 0.000003 -0.000001 8.574307 2.179155 -75.148979 -0.207622 1.009280 -57.855056 0.443050 1.742124 -53.581311 0.000001 -0.000002 0.000000 10.030070 13.637088 -84.750230 0.877121 0.062346 -64.595476 1.141231 1.253126 -55.016340 0.000001 -0.000001 0.000001 6.746336 26.067564 -5.641313 0.000000 0.000000 0.000000 -56.516465 -9.132686 35.083922 -76.680628 20.592546 59.887051 98.889002 -15.813109 -7.286357 -0.360434 0.058168 -0.542662 4.001314 -8.596751 -1.236499 3.857411 -10.852882 -1.954822 -0.000004 0.000002 0.000001 1.177311 -0.281987 0.225298 -0.150301 -0.224062 6.061330 -0.127536 -0.392707 -4.243670 -0.000000 0.000007 0.000000 3.352823 -1.937106 -2.299105 0.310513 -0.273213 26.878861 0.038626 -0.085986 -12.677025 -0.000000 0.000001 0.000001 2.261798 -7.956971 0.679369 0.286928 -0.082352 24.675494 0.173210 -0.168277 8.976919 -0.000002 0.000001 0.000001 1.961562 -6.392790 1.018336 0.532402 0.723588 32.814411 0.425741 -0.107885 8.776652 0.000002 0.000000 -0.000001 -79.936047 -15.983577 23.819914 99.317965 11.924838 6.692763 -20.613238 3.091265 -0.988672 1.278423 -2.397629 -0.303841 -0.000001 -0.000000 -0.000002 -92.203162 -27.936416 5.727325 88.035592 14.510394 7.381589 5.500403 4.389281 9.256441 1.660053 0.132344 -1.199228 0.000001 0.000000 -0.000000 
3.816402 126.223648 355.376648 10.422378 -34.783469 21.068851 35.123210 4.778443 -26.315182 11.018721 4.045011 -5.488550 0.000000 0.000000 0.000000 17.963807 -0.390538 0.823578 -10.228577 16.066914 -13.225069 -40.188905 -6.646898 0.502570 0.000001 0.000000 -0.000000 4.292260 -8.864044 -0.877262 0.000000 0.000000 0.000000 -82.115294 -1.901181 -7.653568 -358.213041 -62.124436 -360.712180 -10.044904 6.053074 26.102968 17.551582 -5.699214 -12.932257 10.850550 26.127716 8.644753 20.927044 51.115845 0.218653 0.000001 0.000001 -0.000002 13.980895 1.201564 -55.004360 0.370798 1.161718 -65.441866 1.983975 2.148008 -57.665108 0.000000 -0.000001 -0.000001 7.504740 1.174509 -63.778503 1.807884 1.475659 -64.568019 0.130334 -0.912276 -43.272503 -0.000000 0.000004 -0.000003 8.574307 2.179156 -75.148979 -0.207624 1.009279 -57.855049 0.443049 1.742125 -53.581311 0.000002 0.000001 -0.000001 10.030070 13.637091 -84.750230 0.877118 0.062349 -64.595476 1.141232 1.253126 -55.016334 0.000001 -0.000000 0.000000 6.167921 25.450308 -4.367981 0.000000 0.000000 0.000000 -52.538269 -9.038838 35.874384 -76.979121 21.195525 61.458957 95.621508 -17.694140 -9.145824 -0.360333 0.058150 -0.542508 4.001299 -8.596755 -1.236505 3.857512 -10.852895 -1.954643 -0.000001 0.000001 -0.000001 1.177751 -0.281654 -0.050757 -0.149888 -0.223221 5.785277 -0.128240 -0.392155 -4.519788 0.000000 0.000001 -0.000001 3.352998 -1.937013 -2.575190 0.309738 -0.272597 26.602825 0.039248 -0.086784 -12.953103 0.000001 0.000001 -0.000002 2.262876 -7.956895 0.403460 0.287550 -0.082919 24.399399 0.173121 -0.168781 8.700843 0.000001 -0.000000 0.000001 1.961575 -6.392708 0.742256 0.533009 0.724131 32.538266 0.425502 -0.108579 8.500543 0.000000 0.000000 -0.000000 -78.303406 -14.907923 23.722145 95.266181 12.061957 7.179138 -20.731140 3.504657 -2.319214 1.286329 -2.336819 -0.314086 0.000001 0.000000 -0.000000 -89.602294 -21.799595 4.288174 76.741970 15.495222 13.565853 5.840220 3.291775 11.029109 1.393578 0.110562 -1.006157 0.000002 -0.000001 0.000002 
